HIERARCHY
ROOT Hips
{
	OFFSET 0.000000 0.000000 0.000000
	CHANNELS 6 Xposition Yposition Zposition Zrotation Yrotation Xrotation 
	JOINT LHipJoint
	{
		OFFSET 0.000000 0.000000 0.000000
		CHANNELS 3 Zrotation Yrotation Xrotation
		JOINT LeftUpLeg
		{
			OFFSET 1.363060 -1.794630 0.839290
			CHANNELS 3 Zrotation Yrotation Xrotation
			JOINT LeftLeg
			{
				OFFSET 2.448110 -6.726130 0.000000
				CHANNELS 3 Zrotation Yrotation Xrotation
				JOINT LeftFoot
				{
					OFFSET 2.562200 -7.039590 0.000000
					CHANNELS 3 Zrotation Yrotation Xrotation
					JOINT LeftToeBase
					{
						OFFSET 0.157640 -0.433110 2.322550
						CHANNELS 3 Zrotation Yrotation Xrotation
						End Site
						{
							OFFSET 0.000000 0.000000 0.000000
						}
					}
				}
			}
		}
	}
	JOINT RHipJoint
	{
		OFFSET 0.000000 0.000000 0.000000
		CHANNELS 3 Zrotation Yrotation Xrotation
		JOINT RightUpLeg
		{
			OFFSET -1.305520 -1.794630 0.839290
			CHANNELS 3 Zrotation Yrotation Xrotation
			JOINT RightLeg
			{
				OFFSET -2.542530 -6.985550 0.000000
				CHANNELS 3 Zrotation Yrotation Xrotation
				JOINT RightFoot
				{
					OFFSET -2.568260 -7.056230 0.000000
					CHANNELS 3 Zrotation Yrotation Xrotation
					JOINT RightToeBase
					{
						OFFSET -0.164730 -0.452590 2.363150
						CHANNELS 3 Zrotation Yrotation Xrotation
						End Site
						{
							OFFSET 0.000000 0.000000 0.000000
						}
					}
				}
			}
		}
	}
}
MOTION
Frames: 19
Frame Time: 0.008333
11.485431 16.730755 1.819962 4.864828 -86.017594 21.159930 -9.556716 -0.615353 1.293816 -12.954202 -3.956284 -56.135006 -2.002028 1.908057 31.906546 0.018801 -0.743280 4.706195 0.167200 0.000000 -37.563600 8.545445 0.776910 -0.005595 12.511675 -3.857508 -60.272534 2.384083 -3.600632 35.143234 0.592385 3.260525 11.960291 0.611700 -0.000000 -74.492900
11.343912 16.406047 1.792240 3.758476 -85.895827 22.149691 -9.460031 -0.836014 1.211723 -12.584471 -4.772777 -58.278491 -1.790402 2.297399 38.069140 0.277240 0.046753 -1.479384 0.226800 0.000000 -31.811300 8.454241 0.980358 -0.050695 12.164966 -2.899454 -62.045469 2.024624 -4.011712 40.864057 0.370419 2.528440 6.211181 0.199900 -0.000000 -71.419200
11.205882 16.079412 1.763051 2.884012 -85.744401 22.940580 -9.387991 -1.086279 1.121275 -12.193908 -5.615222 -60.521121 -1.561670 2.709785 44.388441 0.591570 0.870166 -7.466060 0.085701 -0.000000 -26.412300 8.377514 1.214849 -0.102732 11.838638 -1.960008 -63.884785 1.663985 -4.401683 46.703383 0.087467 1.749538 0.394799 -0.049100 -0.000000 -67.907100
11.071497 15.755764 1.732863 2.234293 -85.574634 23.559120 -9.348160 -1.357121 1.027714 -11.786459 -6.471389 -62.812908 -1.302205 3.134107 50.660624 0.942655 1.767212 -12.957115 -0.231600 0.000000 -22.084400 8.320216 1.469005 -0.158069 11.538246 -1.032229 -65.758900 1.298837 -4.769485 52.494634 -0.251215 0.878371 -5.204388 -0.121800 0.000000 -64.264000
10.940782 15.440265 1.702131 1.770072 -85.399487 24.062693 -9.341073 -1.639695 0.935052 -11.369161 -7.320552 -65.112430 -1.003402 3.558361 56.718319 1.304930 2.744186 -17.767004 -0.689200 -0.000000 -19.151200 8.282963 1.732054 -0.212217 11.266769 -0.106697 -67.644141 0.921267 -5.115589 58.102228 -0.632988 -0.120347 -10.360658 -0.016000 -0.000000 -60.830401
10.813548 15.137783 1.671305 1.456679 -85.230119 24.500621 -9.361263 -1.926252 0.845735 -10.948861 -8.141726 -67.380371 -0.663470 3.970244 62.427901 1.654002 3.782023 -21.804215 -1.241000 0.000000 -17.674800 8.262988 1.996055 -0.261186 11.022333 0.822628 -69.518774 0.523409 -5.438774 63.418451 -1.040172 -1.262530 -14.910913 0.257500 -0.000000 -57.940700
10.689772 14.852700 1.640756 1.266993 -85.075094 24.904173 -9.399711 -2.210449 0.760195 -10.531974 -8.916543 -69.578476 -0.288637 4.358680 67.690939 1.971309 4.841289 -25.065796 -1.836600 -0.000000 -17.426899 8.255263 2.256125 -0.302574 10.799142 1.754329 -71.360899 0.102308 -5.735871 68.362287 -1.452413 -2.535821 -18.762520 0.672200 0.000000 -55.825700
10.569164 14.588530 1.610795 1.187240 -84.939534 25.288156 -9.446993 -2.486161 0.678078 -10.124120 -9.631036 -71.669334 0.108763 4.714625 72.439446 2.245900 5.875285 -27.606575 -2.427900 0.000000 -18.080700 8.254140 2.508514 -0.335262 10.589837 2.680188 -73.146060 -0.337606 -6.002758 72.875263 -1.849865 -3.898901 -21.892448 1.186500 0.000000 -54.527700
10.451321 14.347800 1.581675 1.208993 -84.825532 25.657343 -9.495022 -2.747429 0.599260 -9.730519 -10.277186 -73.620002 0.512605 5.031612 76.632969 2.473888 6.839555 -29.518998 -2.975601 0.000000 -19.333300 8.254373 2.749685 -0.358819 10.387750 3.588035 -74.850650 -0.785622 -6.235813 76.917905 -2.216279 -5.291828 -24.331567 1.749600 0.000001 -54.022100
10.336136 14.132151 1.553619 1.315625 -84.733569 26.012360 -9.538680 -2.989149 0.520751 -9.357239 -10.848046 -75.392655 0.904351 5.306543 80.259172 2.657736 7.699048 -30.934353 -3.457400 -0.000000 -20.815200 8.252143 2.976242 -0.378270 10.193237 4.457984 -76.441037 -1.225622 -6.433765 80.474393 -2.540385 -6.640783 -26.174007 2.312800 0.000000 -54.032800
10.223175 13.942015 1.526808 1.492113 -84.662549 26.356809 -9.575341 -3.206415 0.442326 -9.009459 -11.343291 -76.962672 1.266756 5.539202 83.328699 2.804102 8.433358 -31.992792 -3.867100 0.000000 -22.244400 8.245350 3.184003 -0.395920 10.007650 5.275041 -77.892123 -1.641041 -6.597141 83.543547 -2.817025 -7.880958 -27.535299 2.837300 0.000000 -54.383600
10.112059 13.776836 1.501281 1.742534 -84.610651 26.671788 -9.603760 -3.395100 0.365025 -8.694417 -11.767723 -78.316534 1.585630 5.731991 85.873145 2.922205 9.037371 -32.834320 -4.214001 -0.000000 -23.404200 8.234339 3.369578 -0.413647 9.834043 6.023932 -79.186668 -2.016864 -6.729188 86.143526 -3.045729 -8.959043 -28.551087 3.301200 0.000000 -54.893499
10.002598 13.635443 1.477031 2.059386 -84.576040 26.946834 -9.624709 -3.553163 0.289056 -8.417161 -12.126843 -79.446411 1.851217 5.889270 87.940536 3.022299 9.520202 -33.588200 -4.517600 0.000000 -24.121500 8.220615 3.530448 -0.434795 9.679596 6.691955 -80.307953 -2.341453 -6.834660 88.307328 -3.230316 -9.843215 -29.360854 3.700500 0.000000 -55.367300
9.894449 13.516204 1.454081 2.409008 -84.558171 27.200871 -9.640855 -3.680778 0.214929 -8.176574 -12.424649 -80.354285 2.059157 6.016565 89.589598 3.113762 9.899215 -34.357119 -4.800100 0.000000 -24.296500 8.205547 3.664575 -0.461662 9.554471 7.275794 -81.243960 -2.607845 -6.918241 90.077100 -3.377853 -10.526396 -30.087388 4.045299 0.000000 -55.655601
9.787482 13.416990 1.432279 2.805304 -84.555374 27.406878 -9.652846 -3.778995 0.145696 -7.973722 -12.671521 -81.060315 2.210898 6.119128 90.883655 3.204238 10.198146 -35.199101 -5.080100 0.000000 -23.984900 8.191937 3.772478 -0.493273 9.461639 7.772604 -82.002197 -2.814647 -6.985527 91.503486 -3.496197 -11.017969 -30.823129 4.350500 0.000000 -55.708200
9.681393 13.335808 1.411477 3.231347 -84.567640 27.573870 -9.662419 -3.850802 0.084011 -7.801942 -12.874144 -81.590214 2.312256 6.201776 91.885400 3.298841 10.441438 -36.134743 -5.369500 0.000000 -23.288100 8.181156 3.855122 -0.527940 9.404903 8.188890 -82.593513 -2.964617 -7.040454 92.637151 -3.593887 -11.343804 -31.624183 4.631499 -0.000000 -55.496600
9.575877 13.270734 1.391526 3.680243 -84.595187 27.705776 -9.670414 -3.899826 0.033265 -7.652997 -13.040024 -81.978258 2.372314 6.268272 92.652338 3.399739 10.651379 -37.145846 -5.671700 -0.000000 -22.379799 8.174067 3.914665 -0.562178 9.383209 8.534523 -83.039089 -3.064009 -7.085929 93.526383 -3.678644 -11.537942 -32.508847 4.898600 -0.000000 -55.045800
9.470758 13.220223 1.372317 4.146243 -84.638623 27.808085 -9.677138 -3.930062 -0.003246 -7.516764 -13.175816 -82.260833 2.401762 6.321088 93.232540 3.506122 10.846616 -38.184109 -5.982600 -0.000001 -21.461700 8.170750 3.953904 -0.591539 9.391909 8.822698 -83.365735 -3.121322 -7.123442 94.213113 -3.756468 -11.637472 -33.460354 5.156300 0.000001 -54.417400
9.365724 13.183046 1.353717 4.623088 -84.698692 27.891166 -9.682564 -3.945136 -0.022635 -7.383780 -13.287140 -82.473016 2.411134 6.361536 93.662484 3.614681 11.040377 -39.184573 -6.291800 0.000000 -20.722500 8.170558 3.975644 -0.610996 9.423440 9.068392 -83.602718 -3.145794 -7.153175 94.730032 -3.831037 -11.676983 -34.436529 5.402801 0.000000 -53.698600
